<svg xmlns="http://www.w3.org/2000/svg" xmlns:xlink="http://www.w3.org/1999/xlink" width="20" height="20" viewBox="0 0 20 20">
<defs>
    <path id="a" d="M11.843 1.923a3.272 3.272 0 0 1 3.264 3.264v9.45c0 1.797-.931 3.265-2.728 3.265H8.157a3.272 3.272 0 0 1-3.264-3.264v-9.45a3.272 3.272 0 0 1 3.264-3.265h3.686zm1.89 12.56h-.006V5.341c0-1.119-.919-2.037-2.038-2.037H8.311c-1.12 0-2.038.918-2.038 2.037v9.142c0 1.12.919 2.038 2.038 2.038h3.92c1.12 0 1.502-.918 1.502-2.038zm3.003-11.22A3.272 3.272 0 0 1 20 6.529v6.77a3.272 3.272 0 0 1-3.264 3.263h-1.052c.295-.402.429-.871.516-1.38h.388c1.12 0 2.038-.919 2.038-2.038h-.007V6.682c0-1.12-.918-2.038-2.037-2.038H16.2c-.087-.51-.221-.978-.516-1.38h1.052zm-13.472 0h1.052c-.295.403-.429.872-.516 1.381h-.382c-1.12 0-2.037.918-2.037 2.038v6.46h-.007c0 1.12.918 2.038 2.038 2.038H3.8c.087.51.221.979.516 1.381H3.264A3.272 3.272 0 0 1 0 13.297v-6.77a3.272 3.272 0 0 1 3.264-3.263zm7.024 3.03v1.039c.248.027.456.074.63.147.174.074.329.188.456.342.1.12.181.235.241.355a.84.84 0 0 1 .08.336.41.41 0 0 1-.422.416c-.227 0-.368-.122-.435-.363a.768.768 0 0 0-.543-.57v1.421c.281.074.51.148.677.215.167.06.315.16.449.275.14.127.248.274.328.449.074.174.114.368.114.576a1.469 1.469 0 0 1-.717 1.287c-.234.14-.523.228-.844.255v1.018c0 .134-.047.322-.215.322-.08 0-.14-.027-.174-.074-.034-.053-.054-.06-.054-.167v-1.093a2.349 2.349 0 0 1-.704-.187 1.777 1.777 0 0 1-.502-.356 1.592 1.592 0 0 1-.295-.442c-.06-.154-.1-.308-.1-.456 0-.107.04-.207.127-.295a.44.44 0 0 1 .321-.134c.101 0 .188.027.262.074a.37.37 0 0 1 .147.201c.06.188.12.335.161.43.047.1.114.187.208.267.094.08.214.141.369.188v-1.582a4.744 4.744 0 0 1-.771-.281 1.233 1.233 0 0 1-.503-.443c-.127-.187-.188-.442-.188-.744 0-.395.121-.717.376-.965.254-.248.616-.402 1.086-.442V6.28c0-.188.073-.289.214-.289.147.02.221.114.221.302zm-.435 3.023V8.002a1.176 1.176 0 0 0-.45.228c-.107.094-.16.235-.16.422 0 .181.053.315.147.41.1.093.255.173.463.254zm.435 1.019v1.5c.228-.046.41-.14.53-.274a.7.7 0 0 0 .187-.49c0-.2-.06-.354-.18-.462-.121-.114-.296-.2-.537-.274z"/>
</defs>
<g fill-rule="evenodd">
    <use fill-rule="nonzero" xlink:href="#a"/>
</g>
</svg>
